REM MD5 112e03895d1bae7d90c7f7d572608576
FILE "Hyper PlayStation Re-mix 1998 No. 9 (Japan).bin" BINARY
  TRACK 01 MODE2/2352
    INDEX 01 00:00:00
  TRACK 02 AUDIO
    INDEX 00 47:37:74
    INDEX 01 47:40:74
  TRACK 03 AUDIO
    INDEX 00 49:49:27
    INDEX 01 49:52:27
  TRACK 04 AUDIO
    INDEX 00 50:06:35
    INDEX 01 50:10:35
  TRACK 05 AUDIO
    INDEX 00 51:39:18
    INDEX 01 51:44:18
  TRACK 06 AUDIO
    INDEX 00 51:52:70
    INDEX 01 51:58:70
REM LEADOUT 56:24:39
